<?xml version="1.0" encoding="utf-8"?>
<!-- Svg Vector Icons : http://www.onlinewebfonts.com/icon -->
<!DOCTYPE svg PUBLIC "-//W3C//DTD SVG 1.1//EN" "http://www.w3.org/Graphics/SVG/1.1/DTD/svg11.dtd">
<svg version="1.1" xmlns="http://www.w3.org/2000/svg" xmlns:xlink="http://www.w3.org/1999/xlink" x="0px" y="0px" viewBox="0 0 256 256" enable-background="new 0 0 256 256" xml:space="preserve">
<metadata> Svg Vector Icons : http://www.onlinewebfonts.com/icon </metadata>
<g><g><g><path fill="#000000" d="M113.2,9.9c-8.1,1-14.7,3-27,8c-18.8,7.6-30.9,15.7-44,29.5c-16.5,17.2-27,38.1-31.1,61.8C9.1,121,9.9,145,12.5,156c3,11.5,7.8,22.9,15.6,36.8c7,12.3,7.5,12.9,20.5,24c17.7,15.2,37.3,24.6,58.8,28.4c10.3,1.8,30.2,1.8,40.4,0c32.6-5.6,60.6-24.1,78.9-52c25.1-38,25.6-88.5,1.3-126.8c-15.4-24.4-37.9-41.9-64.6-50.3C148,11.1,125.3,8.4,113.2,9.9z M147,56.1c10.6,4.2,17.9,12.1,20.2,22.1c0.7,3.3,1.2,11.6,1.2,23.1c0,13.1,0.3,17.8,1.1,17.8c1.8,0,4,4,4,7.6c0,4.5-4.1,17.4-6.6,20.5c-1,1.3-2.6,2.4-3.5,2.4c-1.4,0-1.8,1.1-2.3,5.7c-0.6,6.4-3.5,13.2-6.2,14.7c-1.3,0.6-1.8,1.9-1.8,5c0,5.6,0.7,6.9,3.7,6.9c4.8,0,5.5,0.7,5.5,5.6v4.4l8.6,4.2c4.6,2.3,13.7,5.7,20.1,7.6c6.4,1.8,11.7,3.4,11.8,3.6c0.6,0.6-13.8,11.6-20.1,15.3c-8.2,4.9-19.9,9.6-30.1,12.2c-7.1,1.8-10.7,2.1-25,2.1c-18.7,0-25.8-1.3-40.6-7.3c-13.2-5.3-32.5-18-30.4-20c0.4-0.5,4.5-2.3,9.1-4.2c4.6-1.8,13.4-6.1,19.6-9.3l11.3-6l0.3-3.9c0.3-3.9,0.3-3.9,4.3-4.2l3.9-0.3v-5c0-4.4-0.3-5.2-2.7-6.8c-3.5-2.5-6.4-8.5-7.1-15.1c-0.6-4.7-0.8-5.2-3.1-5.6c-3.1-0.6-3.3-1.4-5.6-12.2c-2.2-10.7-2.2-11.8,0.6-15.1l2.3-2.8l-2.5-6.4c-2.3-5.9-2.5-7.2-2.5-21.1c-0.1-16.5,0.7-19.5,5.9-23.9c2.2-1.8,4-2.4,7-2.4c2.6,0,4-0.4,3.6-0.9c-1.9-3.1,2.6-6.8,11.1-9.4C120.2,52.6,139.5,53.2,147,56.1z"/></g></g></g>
</svg>